<svg width="1600" height="760" viewBox="0 0 1600 760" fill="none" xmlns="http://www.w3.org/2000/svg">
  <defs>
    <linearGradient id="bg" x1="0" y1="0" x2="1600" y2="760" gradientUnits="userSpaceOnUse">
      <stop stop-color="#0f172a"/>
      <stop offset="0.55" stop-color="#172554"/>
      <stop offset="1" stop-color="#0f172a"/>
    </linearGradient>
    <linearGradient id="accent" x1="0" y1="0" x2="1" y2="1">
      <stop stop-color="#03a9f4"/>
      <stop offset="1" stop-color="#7c4dff"/>
    </linearGradient>
    <filter id="shadow" x="-20%" y="-20%" width="140%" height="140%">
      <feDropShadow dx="0" dy="28" stdDeviation="28" flood-color="#000000" flood-opacity="0.38"/>
    </filter>
  </defs>

  <rect width="1600" height="760" fill="url(#bg)"/>
  <circle cx="240" cy="150" r="210" fill="#03a9f4" opacity="0.22"/>
  <circle cx="1390" cy="140" r="250" fill="#7c4dff" opacity="0.20"/>
  <circle cx="1270" cy="690" r="310" fill="#00bcd4" opacity="0.14"/>

  <g transform="translate(110 115)">
    <rect x="0" y="0" width="86" height="86" rx="22" fill="url(#accent)"/>
    <path d="M30 25H57V32H37V58H63V44H70V65H30V25Z" fill="white"/>
    <path d="M52 22H70V40H63V34.5L45.5 52L40.5 47L58 29.5H52V22Z" fill="white"/>
  </g>

  <text x="110" y="250" fill="#f8fafc" font-family="Segoe UI,Arial,sans-serif" font-size="82" font-weight="850">HA Theme</text>
  <text x="110" y="340" fill="#f8fafc" font-family="Segoe UI,Arial,sans-serif" font-size="82" font-weight="850">Generator</text>
  <text x="112" y="415" fill="#cbd5e1" font-family="Segoe UI,Arial,sans-serif" font-size="30" font-weight="500">Home Assistant Themes direkt</text>
  <text x="112" y="457" fill="#cbd5e1" font-family="Segoe UI,Arial,sans-serif" font-size="30" font-weight="500">im Browser bearbeiten.</text>

  <g transform="translate(110 520)">
    <rect x="0" y="0" width="170" height="42" rx="21" fill="white" opacity="0.13"/>
    <text x="22" y="28" fill="#f8fafc" font-family="Segoe UI,Arial,sans-serif" font-size="18" font-weight="800">Live-Vorschau</text>

    <rect x="190" y="0" width="210" height="42" rx="21" fill="white" opacity="0.13"/>
    <text x="212" y="28" fill="#f8fafc" font-family="Segoe UI,Arial,sans-serif" font-size="18" font-weight="800">Mushroom &amp; Bubble</text>

    <rect x="0" y="58" width="185" height="42" rx="21" fill="white" opacity="0.13"/>
    <text x="22" y="86" fill="#f8fafc" font-family="Segoe UI,Arial,sans-serif" font-size="18" font-weight="800">HEX · RGB · RGBA</text>

    <rect x="205" y="58" width="130" height="42" rx="21" fill="#03a9f4"/>
    <text x="229" y="86" fill="white" font-family="Segoe UI,Arial,sans-serif" font-size="18" font-weight="850">HACS</text>
  </g>

  <g transform="translate(560 105)" filter="url(#shadow)">
    <rect x="0" y="0" width="940" height="560" rx="36" fill="#152033" stroke="#39506f"/>
    <rect x="0" y="0" width="940" height="70" rx="36" fill="#1f2d44"/>
    <rect x="0" y="36" width="940" height="34" fill="#1f2d44"/>
    <circle cx="42" cy="35" r="9" fill="#ff5f57"/>
    <circle cx="72" cy="35" r="9" fill="#ffbd2e"/>
    <circle cx="102" cy="35" r="9" fill="#28c840"/>

    <rect x="28" y="96" width="884" height="430" rx="18" fill="#f8fafc"/>
    <rect x="28" y="96" width="180" height="430" rx="18" fill="#ffffff"/>
    <rect x="208" y="96" width="704" height="36" fill="#03a9f4"/>

    <rect x="46" y="156" width="144" height="34" rx="8" fill="#e0f2fe"/>
    <text x="74" y="178" fill="#0284c7" font-family="Segoe UI,Arial,sans-serif" font-size="13" font-weight="800">Grundfarben</text>
    <text x="72" y="218" fill="#334155" font-family="Segoe UI,Arial,sans-serif" font-size="13" font-weight="700">Hintergründe</text>
    <text x="72" y="258" fill="#334155" font-family="Segoe UI,Arial,sans-serif" font-size="13" font-weight="700">Textfarben</text>
    <text x="72" y="298" fill="#334155" font-family="Segoe UI,Arial,sans-serif" font-size="13" font-weight="700">Mushroom</text>
    <text x="72" y="338" fill="#334155" font-family="Segoe UI,Arial,sans-serif" font-size="13" font-weight="700">Bubble Card</text>

    <rect x="270" y="155" width="580" height="90" rx="18" fill="#ffffff" stroke="#e5e7eb"/>
    <text x="355" y="188" fill="#64748b" font-family="Segoe UI,Arial,sans-serif" font-size="14" font-weight="700">Uhrzeit</text>
    <text x="355" y="222" fill="#111827" font-family="Segoe UI,Arial,sans-serif" font-size="34" font-weight="700">20:29</text>
    <text x="650" y="188" fill="#64748b" font-family="Segoe UI,Arial,sans-serif" font-size="14" font-weight="700">Wetter</text>
    <text x="650" y="222" fill="#111827" font-family="Segoe UI,Arial,sans-serif" font-size="34" font-weight="700">20 °C</text>

    <rect x="270" y="265" width="280" height="128" rx="18" fill="#ffffff" stroke="#e5e7eb"/>
    <text x="300" y="300" fill="#111827" font-family="Segoe UI,Arial,sans-serif" font-size="20" font-weight="850">Standardkarte</text>

    <rect x="570" y="265" width="280" height="128" rx="18" fill="#ffffff" stroke="#e5e7eb"/>
    <text x="600" y="300" fill="#111827" font-family="Segoe UI,Arial,sans-serif" font-size="20" font-weight="850">Theme-Farben</text>

    <rect x="270" y="412" width="580" height="82" rx="18" fill="#ffffff" stroke="#e5e7eb"/>
    <text x="300" y="455" fill="#111827" font-family="Segoe UI,Arial,sans-serif" font-size="20" font-weight="850">Schalter &amp; Slider</text>
  </g>
</svg>
